<?xml version="1.0" standalone="no"?>
<!DOCTYPE svg PUBLIC "-//W3C//DTD SVG 20010904//EN"
 "http://www.w3.org/TR/2001/REC-SVG-20010904/DTD/svg10.dtd">
<svg version="1.0" xmlns="http://www.w3.org/2000/svg"
 width="59.000000pt" height="69.000000pt" viewBox="0 0 59.000000 69.000000"
 preserveAspectRatio="xMidYMid meet">

<g transform="translate(0.000000,69.000000) scale(0.100000,-0.100000)"
fill="#000000" stroke="none">
<path d="M0 345 l0 -345 240 0 240 0 0 44 c0 34 8 56 36 97 20 30 44 57 55 61
16 6 19 17 19 63 0 50 -2 56 -25 65 -14 5 -25 14 -25 19 0 6 -14 26 -31 46
-25 29 -30 42 -29 77 2 24 2 82 1 131 l-1 87 -240 0 -240 0 0 -345z"/>
</g>
</svg>
